<?xml version="1.0" encoding="UTF-8"?>
<svg width="16px" height="16px" viewBox="0 0 16 16" version="1.1" xmlns="http://www.w3.org/2000/svg" xmlns:xlink="http://www.w3.org/1999/xlink">
    <title>Automation</title>
    <g id="Chrome-rebrand---light" stroke="none" stroke-width="1" fill="none" fill-rule="evenodd">
        <g id="POC-Icons" transform="translate(-85.000000, -311.000000)" fill="#606060" fill-rule="nonzero">
            <g id="Automation" transform="translate(85.000000, 311.000000)">
                <path d="M8,12 C6.89733333,12 6,12.8973333 6,14 C6,14.3686667 6.298,14.6666667 6.66666667,14.6666667 C7.03533333,14.6666667 7.33333333,14.3686667 7.33333333,14 C7.33333333,13.632 7.632,13.3333333 8,13.3333333 C8.368,13.3333333 8.66666667,13.632 8.66666667,14 C8.66666667,14.3686667 8.96466667,14.6666667 9.33333333,14.6666667 C9.702,14.6666667 10,14.3686667 10,14 C10,12.8973333 9.10266667,12 8,12 Z M8,7.33333333 C6.89733333,7.33333333 6,8.23066667 6,9.33333333 C6,9.702 6.298,10 6.66666667,10 C7.03533333,10 7.33333333,9.702 7.33333333,9.33333333 C7.33333333,8.96533333 7.632,8.66666667 8,8.66666667 C8.368,8.66666667 8.66666667,8.96533333 8.66666667,9.33333333 C8.66666667,9.702 8.96466667,10 9.33333333,10 C9.702,10 10,9.702 10,9.33333333 C10,8.23066667 9.10266667,7.33333333 8,7.33333333 Z M16,7.33333333 C16,6.96466667 15.702,6.66666667 15.3333333,6.66666667 L12.6666667,6.66666667 L12.6666667,5.33333333 C14.5046667,5.33333333 16,3.838 16,2 C16,1.63133333 15.702,1.33333333 15.3333333,1.33333333 L12.544,1.33333333 C12.268,0.559333333 11.5346667,0 10.6666667,0 L5.33333333,0 C4.46533333,0 3.732,0.559333333 3.456,1.33333333 L0.666666667,1.33333333 C0.298,1.33333333 0,1.63133333 0,2 C0,3.838 1.49533333,5.33333333 3.33333333,5.33333333 L3.33333333,6.66666667 L0.666666667,6.66666667 C0.298,6.66666667 0,6.96466667 0,7.33333333 C0,9.17133333 1.49533333,10.6666667 3.33333333,10.6666667 L3.33333333,12 L0.666666667,12 C0.298,12 0,12.298 0,12.6666667 C0,14.5046667 1.49533333,16 3.33333333,16 L4,16 C4.36866667,16 4.66666667,15.702 4.66666667,15.3333333 L4.66666667,2 C4.66666667,1.632 4.96533333,1.33333333 5.33333333,1.33333333 L10.6666667,1.33333333 C11.0346667,1.33333333 11.3333333,1.632 11.3333333,2 L11.3333333,15.3333333 C11.3333333,15.702 11.6313333,16 12,16 L12.6666667,16 C14.5046667,16 16,14.5046667 16,12.6666667 C16,12.298 15.702,12 15.3333333,12 L12.6666667,12 L12.6666667,10.6666667 C14.5046667,10.6666667 16,9.17133333 16,7.33333333 Z M12.6666667,2.66666667 L14.5526667,2.66666667 C14.2773333,3.44266667 13.536,4 12.6666667,4 L12.6666667,2.66666667 Z M12.6666667,8 L14.5526667,8 C14.2773333,8.776 13.536,9.33333333 12.6666667,9.33333333 L12.6666667,8 Z M3.33333333,14.6666667 C2.464,14.6666667 1.72266667,14.1093333 1.44733333,13.3333333 L3.33333333,13.3333333 L3.33333333,14.6666667 Z M3.33333333,9.33333333 C2.464,9.33333333 1.72266667,8.776 1.44733333,8 L3.33333333,8 L3.33333333,9.33333333 Z M3.33333333,4 C2.464,4 1.72266667,3.44266667 1.44733333,2.66666667 L3.33333333,2.66666667 L3.33333333,4 Z M14.5526667,13.3333333 C14.2773333,14.1093333 13.536,14.6666667 12.6666667,14.6666667 L12.6666667,13.3333333 L14.5526667,13.3333333 Z M8,2.66666667 C6.89733333,2.66666667 6,3.564 6,4.66666667 C6,5.03533333 6.298,5.33333333 6.66666667,5.33333333 C7.03533333,5.33333333 7.33333333,5.03533333 7.33333333,4.66666667 C7.33333333,4.29866667 7.632,4 8,4 C8.368,4 8.66666667,4.29866667 8.66666667,4.66666667 C8.66666667,5.03533333 8.96466667,5.33333333 9.33333333,5.33333333 C9.702,5.33333333 10,5.03533333 10,4.66666667 C10,3.564 9.10266667,2.66666667 8,2.66666667 Z" id="Shape"></path>
            </g>
        </g>
    </g>
</svg>