<?xml version="1.0" encoding="UTF-8"?>
<svg width="14px" height="16px" viewBox="0 0 14 16" version="1.1" xmlns="http://www.w3.org/2000/svg" xmlns:xlink="http://www.w3.org/1999/xlink">
    <title>Automation_Selected</title>
    <g id="Chrome-rebrand---light" stroke="none" stroke-width="1" fill="none" fill-rule="evenodd">
        <g id="POC-Icons" transform="translate(-135.000000, -311.000000)" fill="#444444" fill-rule="nonzero">
            <path d="M149,317.666667 L146.2,317.666667 L146.2,315.599333 C147.7974,315.290667 149,313.946 149,312.333333 L146.2,312.333333 C146.2,311.597333 145.5728,311 144.8,311 L139.2,311 C138.4272,311 137.8,311.597333 137.8,312.333333 L135,312.333333 C135,313.946 136.2026,315.290667 137.8,315.599333 L137.8,317.666667 L135,317.666667 C135,319.279333 136.2026,320.624 137.8,320.932667 L137.8,322.333333 L135,322.333333 C135,323.946 136.2026,325.290667 137.8,325.599333 L137.8,325.666667 C137.8,326.402667 138.4272,327 139.2,327 L144.8,327 C145.5728,327 146.2,326.402667 146.2,325.666667 L146.2,325.599333 C147.7974,325.290667 149,323.946 149,322.333333 L146.2,322.333333 L146.2,320.932667 C147.7974,320.624 149,319.279333 149,317.666667 Z M142,325.666667 C141.0333,325.666667 140.25,324.920667 140.25,324 C140.25,323.079333 141.0333,322.333333 142,322.333333 C142.9667,322.333333 143.75,323.079333 143.75,324 C143.75,324.920667 142.9667,325.666667 142,325.666667 Z M142,321 C141.0333,321 140.25,320.254 140.25,319.333333 C140.25,318.412667 141.0333,317.666667 142,317.666667 C142.9667,317.666667 143.75,318.412667 143.75,319.333333 C143.75,320.254 142.9667,321 142,321 Z M142,315.666667 C141.0333,315.666667 140.25,314.920667 140.25,314 C140.25,313.079333 141.0333,312.333333 142,312.333333 C142.9667,312.333333 143.75,313.079333 143.75,314 C143.75,314.920667 142.9667,315.666667 142,315.666667 Z" id="Automation_Selected"></path>
        </g>
    </g>
</svg>