<?xml version="1.0" encoding="UTF-8"?>
<svg width="16px" height="16px" viewBox="0 0 16 16" version="1.1" xmlns="http://www.w3.org/2000/svg" xmlns:xlink="http://www.w3.org/1999/xlink">
    <title>Content_Selected</title>
    <g id="Chrome-rebrand---light" stroke="none" stroke-width="1" fill="none" fill-rule="evenodd">
        <g id="POC-Icons" transform="translate(-133.000000, -163.000000)" fill="#444444" fill-rule="nonzero">
            <path d="M136.333333,164.333333 L145.666667,164.333333 C146.033333,164.333333 146.333333,164.033333 146.333333,163.666667 C146.333333,163.3 146.033333,163 145.666667,163 L136.333333,163 C135.966667,163 135.666667,163.3 135.666667,163.666667 C135.666667,164.033333 135.966667,164.333333 136.333333,164.333333 Z M147.666667,168.333333 L134.333333,168.333333 C133.597333,168.333333 133,168.930667 133,169.666667 L133,177.666667 C133,178.402667 133.597333,179 134.333333,179 L147.666667,179 C148.402667,179 149,178.402667 149,177.666667 L149,169.666667 C149,168.930667 148.402667,168.333333 147.666667,168.333333 Z M136.333333,176.333333 L139.666667,171 L141.666667,173.666667 L143,172.333333 L145.666667,176.333333 L136.333333,176.333333 Z M135,167 L147,167 C147.366667,167 147.666667,166.7 147.666667,166.333333 C147.666667,165.966667 147.366667,165.666667 147,165.666667 L135,165.666667 C134.633333,165.666667 134.333333,165.966667 134.333333,166.333333 C134.333333,166.7 134.633333,167 135,167 Z" id="Content_Selected"></path>
        </g>
    </g>
</svg>