<?xml version="1.0" encoding="UTF-8"?>
<svg width="18px" height="16px" viewBox="0 0 18 16" version="1.1" xmlns="http://www.w3.org/2000/svg" xmlns:xlink="http://www.w3.org/1999/xlink">
    <title>Contacts</title>
    <g id="Chrome-rebrand---light" stroke="none" stroke-width="1" fill="none" fill-rule="evenodd">
        <g id="POC-Icons" transform="translate(-85.000000, -122.000000)" fill="#606060" fill-rule="nonzero">
            <g id="Contacts" transform="translate(85.000000, 122.000000)">
                <path d="M15.75,0 C16.9478488,0 17.9277162,0.908690554 17.9961789,2.05366105 L18,2.18181818 L18,3.63636364 C18,4.19505975 17.783202,4.70485342 17.4267695,5.09091953 C17.7554219,5.44650236 17.9657604,5.90857793 17.9961789,6.41729742 L18,6.54545455 L18,8 C18,9.16155034 17.0629129,10.1117248 15.882162,10.1781129 L15.75,10.1818182 L15,10.181 L15,13.8181818 C15,14.9703799 14.0779421,15.9145922 12.9106348,15.9945196 L12.75,16 L3.75,16 C2.50778644,16 1.5,15.0227525 1.5,13.8181818 L1.5,13.8181818 L1.499,13.09 L0.75,13.0909091 C0.335786438,13.0909091 0,12.765298 0,12.3636364 C0,11.9906648 0.289530143,11.6832675 0.662534156,11.6412565 L0.75,11.6363636 L1.499,11.636 L1.499,8.727 L0.75,8.72727273 C0.335786438,8.72727273 0,8.40166164 0,8 C0,7.62702848 0.289530143,7.31963116 0.662534156,7.27762017 L0.75,7.27272727 L1.499,7.272 L1.499,4.363 L0.75,4.36363636 C0.335786438,4.36363636 0,4.03802527 0,3.63636364 C0,3.26339212 0.289530143,2.95599479 0.662534156,2.9139838 L0.75,2.90909091 L1.499,2.909 L1.5,2.18181818 C1.5,1.02962009 2.42205791,0.0854077622 3.58936516,0.00548041014 L3.75,0 L15.75,0 Z M13.499775,1.45454545 L3.75,1.45454545 C3.33621356,1.45454545 3,1.78057073 3,2.18181818 L3,2.18181818 L2.99986052,3.62219557 C2.99995337,3.62690743 3,3.63163025 3,3.63636364 L2.999,3.649 L2.99986052,7.98583193 C2.99995337,7.99054379 3,7.99526661 3,8 L2.999,8.012 L2.99986052,12.3494683 C2.99995337,12.3541802 3,12.358903 3,12.3636364 L2.999,12.376 L3,13.8181818 C3,14.185992 3.28251279,14.4905946 3.64831917,14.5388075 L3.75,14.5454545 L12.75,14.5454545 C13.1637864,14.5454545 13.5,14.2194293 13.5,13.8181818 L13.5,13.8181818 L13.499775,1.45454545 Z M8.25,10.1817455 C9.59811168,10.1817455 10.8634379,10.549278 11.7100965,11.1870369 C12.037211,11.433441 12.0963975,11.890334 11.8422932,12.207536 C11.5881889,12.5247379 11.117018,12.5821309 10.7899035,12.3357267 C10.224442,11.909784 9.28287118,11.6362909 8.25,11.6362909 C7.21712882,11.6362909 6.27555798,11.909784 5.71009647,12.3357267 C5.38298197,12.5821309 4.91181106,12.5247379 4.6577068,12.207536 C4.40360253,11.890334 4.46278903,11.433441 4.78990353,11.1870369 C5.6365621,10.549278 6.90188832,10.1817455 8.25,10.1817455 Z M8.25,4.36363636 C9.69921356,4.36363636 10.875,5.50379291 10.875,6.90909091 C10.875,8.31438891 9.69921356,9.45454545 8.25,9.45454545 C6.80078644,9.45454545 5.625,8.31438891 5.625,6.90909091 C5.625,5.50379291 6.80078644,4.36363636 8.25,4.36363636 Z M15,8.727 L15.75,8.72727273 C16.1342303,8.72727273 16.4515737,8.4461591 16.4949481,8.08473884 L16.5,8 L16.5,6.54545455 C16.5,6.17286762 16.2101016,5.86514064 15.8373869,5.8230806 L15.75,5.81818182 L15,5.818 L15,8.727 Z M8.25,5.81818182 C7.62921356,5.81818182 7.125,6.30711618 7.125,6.90909091 C7.125,7.51106564 7.62921356,8 8.25,8 C8.87078644,8 9.375,7.51106564 9.375,6.90909091 C9.375,6.30711618 8.87078644,5.81818182 8.25,5.81818182 Z M15.75,1.45454545 L15,1.454 L15,4.363 L15.75,4.36363636 C16.1342303,4.36363636 16.4515737,4.08252274 16.4949481,3.72110247 L16.5,3.63636364 L16.5,2.18181818 C16.5,1.80923126 16.2101016,1.50150428 15.8373869,1.45944424 L15.75,1.45454545 Z" id="Combined-Shape"></path>
            </g>
        </g>
    </g>
</svg>