<?xml version="1.0" encoding="UTF-8"?>
<svg width="16px" height="16px" viewBox="0 0 16 16" version="1.1" xmlns="http://www.w3.org/2000/svg" xmlns:xlink="http://www.w3.org/1999/xlink">
    <title>Content</title>
    <g id="Chrome-rebrand---light" stroke="none" stroke-width="1" fill="none" fill-rule="evenodd">
        <g id="POC-Icons" transform="translate(-84.000000, -163.000000)" fill="#606060" fill-rule="nonzero">
            <g id="Content" transform="translate(84.000000, 163.000000)">
                <path d="M3.33333333,1.33333333 L12.6666667,1.33333333 C13.0353333,1.33333333 13.3333333,1.03533333 13.3333333,0.666666667 C13.3333333,0.298 13.0353333,0 12.6666667,0 L3.33333333,0 C2.96466667,0 2.66666667,0.298 2.66666667,0.666666667 C2.66666667,1.03533333 2.96466667,1.33333333 3.33333333,1.33333333 Z M2,4 L14,4 C14.3686667,4 14.6666667,3.702 14.6666667,3.33333333 C14.6666667,2.96466667 14.3686667,2.66666667 14,2.66666667 L2,2.66666667 C1.63133333,2.66666667 1.33333333,2.96466667 1.33333333,3.33333333 C1.33333333,3.702 1.63133333,4 2,4 Z M14,5.33333333 L2,5.33333333 C0.897333333,5.33333333 0,6.23066667 0,7.33333333 L0,14 C0,15.1026667 0.897333333,16 2,16 L14,16 C15.1026667,16 16,15.1026667 16,14 L16,7.33333333 C16,6.23066667 15.1026667,5.33333333 14,5.33333333 Z M2,14.6666667 C1.76133333,14.6666667 1.56133333,14.534 1.44333333,14.3446667 C1.45533333,14.332 1.47133333,14.326 1.48266667,14.3126667 L4.656,10.4053333 L7.97,14.6666667 L2,14.6666667 Z M14.6666667,14 C14.6666667,14.368 14.368,14.6666667 14,14.6666667 L9.65933333,14.6666667 L5.19266667,8.924 C5.06866667,8.764 4.87666667,8.66866667 4.674,8.66666667 L4.66666667,8.66666667 C4.466,8.66666667 4.276,8.75733333 4.14933333,8.91266667 L1.33333333,12.38 L1.33333333,7.33333333 C1.33333333,6.96533333 1.632,6.66666667 2,6.66666667 L14,6.66666667 C14.368,6.66666667 14.6666667,6.96533333 14.6666667,7.33333333 L14.6666667,14 Z M11.3333333,8 C10.2306667,8 9.33333333,8.89733333 9.33333333,10 C9.33333333,11.1026667 10.2306667,12 11.3333333,12 C12.436,12 13.3333333,11.1026667 13.3333333,10 C13.3333333,8.89733333 12.436,8 11.3333333,8 Z M11.3333333,10.6666667 C10.9653333,10.6666667 10.6666667,10.368 10.6666667,10 C10.6666667,9.632 10.9653333,9.33333333 11.3333333,9.33333333 C11.7013333,9.33333333 12,9.632 12,10 C12,10.368 11.7013333,10.6666667 11.3333333,10.6666667 Z" id="Shape"></path>
            </g>
        </g>
    </g>
</svg>