<?xml version="1.0" encoding="UTF-8"?>
<svg width="18px" height="16px" viewBox="0 0 18 16" version="1.1" xmlns="http://www.w3.org/2000/svg" xmlns:xlink="http://www.w3.org/1999/xlink">
    <title>Contacts_Selected</title>
    <g id="Chrome-rebrand---light" stroke="none" stroke-width="1" fill="none" fill-rule="evenodd">
        <g id="POC-Icons" transform="translate(-133.000000, -122.000000)" fill="#444444" fill-rule="nonzero">
            <g id="Contacts_Selected" transform="translate(133.000000, 122.000000)">
                <path d="M16,0 L15.2727273,0 L15.2727273,4.36363636 L16,4.36363636 C16.8029091,4.36363636 17.4545455,3.71272727 17.4545455,2.90909091 L17.4545455,1.45454545 C17.4545455,0.650909091 16.8029091,0 16,0 Z M1.45454545,1.45381818 L1.45454545,2.90909091 L0.727272727,2.90909091 C0.327272727,2.90909091 0,3.23636364 0,3.63636364 C0,4.03636364 0.327272727,4.36363636 0.727272727,4.36363636 L1.45454545,4.36363636 L1.45454545,7.27272727 L0.727272727,7.27272727 C0.327272727,7.27272727 0,7.6 0,8 C0,8.4 0.327272727,8.72727273 0.727272727,8.72727273 L1.45454545,8.72727273 L1.45454545,11.6363636 L0.727272727,11.6363636 C0.327272727,11.6363636 0,11.9636364 0,12.3636364 C0,12.7636364 0.327272727,13.0909091 0.727272727,13.0909091 L1.45454545,13.0909091 L1.45454545,14.5461818 C1.45454545,15.3490909 2.10545455,16 2.90836364,16 L13.8181818,16 L13.8181818,0 L2.90836364,0 C2.10545455,0 1.45454545,0.650909091 1.45454545,1.45381818 Z M7.63636364,4.36363636 C8.63854545,4.36363636 9.45454545,5.17890909 9.45454545,6.18181818 C9.45454545,7.18472727 8.63854545,8 7.63636364,8 C6.63418182,8 5.81818182,7.18472727 5.81818182,6.18181818 C5.81818182,5.17890909 6.63418182,4.36363636 7.63636364,4.36363636 Z M5.09090909,11.0865455 C5.09090909,9.78545455 6.23272727,8.72727273 7.63636364,8.72727273 C9.04,8.72727273 10.1818182,9.78545455 10.1818182,11.0865455 L10.1818182,11.6363636 L5.09090909,11.6363636 L5.09090909,11.0865455 Z M16,5.81818182 L15.2727273,5.81818182 L15.2727273,10.1818182 L16,10.1818182 C16.8029091,10.1818182 17.4545455,9.53090909 17.4545455,8.72727273 L17.4545455,7.27272727 C17.4545455,6.46909091 16.8029091,5.81818182 16,5.81818182 Z" id="Shape"></path>
            </g>
        </g>
    </g>
</svg>