<?xml version="1.0" encoding="UTF-8"?>
<svg width="16px" height="16px" viewBox="0 0 16 16" version="1.1" xmlns="http://www.w3.org/2000/svg" xmlns:xlink="http://www.w3.org/1999/xlink">
    <title>Home</title>
    <g id="Chrome-rebrand---light" stroke="none" stroke-width="1" fill="none" fill-rule="evenodd">
        <g id="POC-Icons" transform="translate(-85.000000, -78.000000)" fill="#606060" fill-rule="nonzero">
            <g id="Home" transform="translate(85.000000, 78.000000)">
                <path d="M15.7553333,6.151 L8.422,0.151 C8.17666667,-0.0503333333 7.82333333,-0.0503333333 7.57733333,0.151 L0.244,6.151 C0.09,6.27766667 0,6.467 0,6.667 L0,14.0003333 C0,15.103 0.897333333,16.0003333 2,16.0003333 L14,16.0003333 C15.1026667,16.0003333 16,15.103 16,14.0003333 L16,6.667 C16,6.467 15.91,6.27766667 15.7553333,6.151 Z M10,14.667 L6,14.667 L6,11.3336667 C6,10.231 6.89733333,9.33366667 8,9.33366667 C9.10266667,9.33366667 10,10.231 10,11.3336667 L10,14.667 Z M14.6666667,14.0003333 C14.6666667,14.3676667 14.3673333,14.667 14,14.667 L11.3333333,14.667 L11.3333333,11.3336667 C11.3333333,9.49566667 9.838,8.00033333 8,8.00033333 C6.162,8.00033333 4.66666667,9.49566667 4.66666667,11.3336667 L4.66666667,14.667 L2,14.667 C1.63266667,14.667 1.33333333,14.3676667 1.33333333,14.0003333 L1.33333333,6.983 L8,1.52833333 L14.6666667,6.983 L14.6666667,14.0003333 Z" id="Shape"></path>
            </g>
        </g>
    </g>
</svg>