<?xml version="1.0" encoding="UTF-8"?>
<svg width="16px" height="16px" viewBox="0 0 16 16" version="1.1" xmlns="http://www.w3.org/2000/svg" xmlns:xlink="http://www.w3.org/1999/xlink">
    <title>Inbound_Selected</title>
    <g id="Chrome-rebrand---light" stroke="none" stroke-width="1" fill="none" fill-rule="evenodd">
        <g id="POC-Icons" transform="translate(-134.000000, -207.000000)" fill="#444444" fill-rule="nonzero">
            <path d="M147.333333,215 L147.333333,219 C147.333333,219.735333 146.735333,220.333333 146,220.333333 L138,220.333333 C137.264667,220.333333 136.666667,219.735333 136.666667,219 L136.666667,215 L134,215 L134,219 C134,221.206 135.794,223 138,223 L146,223 C148.206,223 150,221.206 150,219 L150,215 L147.333333,215 Z M142,217.666667 L145.528667,214.138 C145.948667,213.718 145.651333,213 145.057333,213 L143.333333,213 L143.333333,208.333333 C143.333333,207.597333 142.736667,207 142,207 C141.263333,207 140.666667,207.597333 140.666667,208.333333 L140.666667,213 L138.942667,213 C138.348667,213 138.051333,213.718 138.471333,214.138 L142,217.666667 Z" id="Inbound_Selected"></path>
        </g>
    </g>
</svg>