<?xml version="1.0" encoding="UTF-8"?>
<svg width="16px" height="16px" viewBox="0 0 16 16" version="1.1" xmlns="http://www.w3.org/2000/svg" xmlns:xlink="http://www.w3.org/1999/xlink">
    <title>Inbound</title>
    <g id="Chrome-rebrand---light" stroke="none" stroke-width="1" fill="none" fill-rule="evenodd">
        <g id="POC-Icons" transform="translate(-85.000000, -207.000000)" fill="#606060" fill-rule="nonzero">
            <g id="Inbound" transform="translate(85.000000, 207.000000)">
                <path d="M7.4336,10.9648 C7.5072,11.0392 7.596,11.0976 7.6944,11.1384 C7.792,11.1792 7.896,11.2 8,11.2 C8.104,11.2 8.208,11.1792 8.3056,11.1384 C8.404,11.0976 8.4928,11.0392 8.5664,10.9648 L11.7656,7.7656 C12.0784,7.4528 12.0784,6.9472 11.7656,6.6344 C11.4528,6.3216 10.9472,6.3216 10.6344,6.6344 L8.8,8.4688 L8.8,0.8 C8.8,0.3576 8.4424,0 8,0 C7.5576,0 7.2,0.3576 7.2,0.8 L7.2,8.4688 L5.3656,6.6344 C5.0528,6.3216 4.5472,6.3216 4.2344,6.6344 C3.9216,6.9472 3.9216,7.4528 4.2344,7.7656 L7.4336,10.9648 Z M15.2,7.2 C14.7576,7.2 14.4,7.5576 14.4,8 L14.4,13.6 C14.4,14.0416 14.0416,14.4 13.6,14.4 L2.4,14.4 C1.9584,14.4 1.6,14.0416 1.6,13.6 L1.6,8 C1.6,7.5576 1.2424,7.2 0.8,7.2 C0.3576,7.2 0,7.5576 0,8 L0,13.6 C0,14.9232 1.0768,16 2.4,16 L13.6,16 C14.9232,16 16,14.9232 16,13.6 L16,8 C16,7.5576 15.6424,7.2 15.2,7.2 Z" id="Shape"></path>
            </g>
        </g>
    </g>
</svg>