<?xml version="1.0" encoding="UTF-8"?>
<svg width="16px" height="16px" viewBox="0 0 16 16" version="1.1" xmlns="http://www.w3.org/2000/svg" xmlns:xlink="http://www.w3.org/1999/xlink">
    <title>Outbound_Selected</title>
    <g id="Chrome-rebrand---light" stroke="none" stroke-width="1" fill="none" fill-rule="evenodd">
        <g id="POC-Icons" transform="translate(-134.000000, -259.000000)" fill="#444444" fill-rule="nonzero">
            <path d="M138.942667,263.666667 L140.666667,263.666667 L140.666667,268.333333 C140.666667,269.069333 141.263333,269.666667 142,269.666667 C142.736667,269.666667 143.333333,269.069333 143.333333,268.333333 L143.333333,263.666667 L145.057333,263.666667 C145.651333,263.666667 145.948667,262.948667 145.528667,262.528667 L142,259 L138.471333,262.528667 C138.051333,262.948667 138.348667,263.666667 138.942667,263.666667 Z M147.333333,267 L147.333333,271 C147.333333,271.735333 146.735333,272.333333 146,272.333333 L138,272.333333 C137.264667,272.333333 136.666667,271.735333 136.666667,271 L136.666667,267 L134,267 L134,271 C134,273.206 135.794,275 138,275 L146,275 C148.206,275 150,273.206 150,271 L150,267 L147.333333,267 Z" id="Outbound_Selected"></path>
        </g>
    </g>
</svg>