<?xml version="1.0" encoding="UTF-8"?>
<svg width="16px" height="16px" viewBox="0 0 16 16" version="1.1" xmlns="http://www.w3.org/2000/svg" xmlns:xlink="http://www.w3.org/1999/xlink">
    <title>Outbound</title>
    <g id="Chrome-rebrand---light" stroke="none" stroke-width="1" fill="none" fill-rule="evenodd">
        <g id="POC-Icons" transform="translate(-85.000000, -259.000000)" fill="#606060" fill-rule="nonzero">
            <g id="Outbound" transform="translate(85.000000, 259.000000)">
                <path d="M5.3656,4.5646 L7.2,2.7302 L7.2,10.399 C7.2,10.8414 7.5584,11.199 8,11.199 C8.4416,11.199 8.8,10.8414 8.8,10.399 L8.8,2.7302 L10.6344,4.5646 C10.7904,4.7206 10.9952,4.799 11.2,4.799 C11.4048,4.799 11.6096,4.7206 11.7656,4.5646 C12.0784,4.2518 12.0784,3.7462 11.7656,3.4334 L8.5664,0.2342 C8.4928,0.1598 8.404,0.1014 8.3056,0.0606 C8.1104,-0.0202 7.8896,-0.0202 7.6944,0.0606 C7.596,0.1014 7.508,0.1598 7.4336,0.2342 L4.2344,3.4334 C3.9216,3.7462 3.9216,4.2518 4.2344,4.5646 C4.5472,4.8774 5.0528,4.8774 5.3656,4.5646 Z M15.2,7.199 C14.7584,7.199 14.4,7.5566 14.4,7.999 L14.4,13.599 C14.4,14.0406 14.0408,14.399 13.6,14.399 L2.4,14.399 C1.9592,14.399 1.6,14.0406 1.6,13.599 L1.6,7.999 C1.6,7.5566 1.2416,7.199 0.8,7.199 C0.3584,7.199 0,7.5566 0,7.999 L0,13.599 C0,14.9222 1.0768,15.999 2.4,15.999 L13.6,15.999 C14.9232,15.999 16,14.9222 16,13.599 L16,7.999 C16,7.5566 15.6416,7.199 15.2,7.199 Z" id="Shape"></path>
            </g>
        </g>
    </g>
</svg>