<?xml version="1.0" encoding="UTF-8"?>
<svg width="16px" height="16px" viewBox="0 0 16 16" version="1.1" xmlns="http://www.w3.org/2000/svg" xmlns:xlink="http://www.w3.org/1999/xlink">
    <title>Reports</title>
    <g id="Chrome-rebrand---light" stroke="none" stroke-width="1" fill="none" fill-rule="evenodd">
        <g id="POC-Icons" transform="translate(-85.000000, -363.000000)" fill="#606060" fill-rule="nonzero">
            <g id="Reports" transform="translate(85.000000, 363.000000)">
                <path d="M13.9986667,9.34666667 C13.634,9.27066667 13.2853333,9.50666667 13.212,9.86733333 C12.6486667,12.6486667 10.176,14.6666667 7.33333333,14.6666667 C4.02466667,14.6666667 1.33333333,11.9746667 1.33333333,8.66666667 C1.33333333,5.824 3.35133333,3.352 6.13266667,2.78733333 C6.49333333,2.714 6.72666667,2.362 6.65333333,2.00133333 C6.58066667,1.64133333 6.23333333,1.40733333 5.86733333,1.48066667 C2.46733333,2.17066667 0,5.19266667 0,8.66666667 C0,12.71 3.29,16 7.33333333,16 C10.8073333,16 13.8293333,13.532 14.5193333,10.1326667 C14.5926667,9.772 14.3593333,9.42 13.9986667,9.34666667 L13.9986667,9.34666667 Z M8.66666667,0 C8.298,0 8,0.298666667 8,0.666666667 L8,7.33333333 C8,7.70133333 8.298,8 8.66666667,8 L15.3333333,8 C15.702,8 16,7.70133333 16,7.33333333 C16,3.29 12.71,0 8.66666667,0 Z M9.33333333,6.66666667 L9.33333333,1.37 C12.11,1.678 14.3213333,3.89 14.6293333,6.66666667 L9.33333333,6.66666667 Z" id="Shape"></path>
            </g>
        </g>
    </g>
</svg>