<?xml version="1.0" encoding="UTF-8"?>
<svg width="16px" height="16px" viewBox="0 0 16 16" version="1.1" xmlns="http://www.w3.org/2000/svg" xmlns:xlink="http://www.w3.org/1999/xlink">
    <title>Settings_Selected</title>
    <g id="Chrome-rebrand---light" stroke="none" stroke-width="1" fill="none" fill-rule="evenodd">
        <g id="POC-Icons" transform="translate(-134.000000, -391.000000)" fill="#444444" fill-rule="nonzero">
            <path d="M134.666667,394.333333 L136.666667,394.333333 L136.666667,395 C136.666667,395.733333 137.266667,396.333333 138,396.333333 C138.733333,396.333333 139.333333,395.733333 139.333333,395 L139.333333,392.333333 C139.333333,391.6 138.733333,391 138,391 C137.266667,391 136.666667,391.6 136.666667,392.333333 L136.666667,393 L134.666667,393 C134.298667,393 134,393.298667 134,393.666667 C134,394.034667 134.298667,394.333333 134.666667,394.333333 Z M134.666667,399.666667 L143.333333,399.666667 L143.333333,398.333333 L134.666667,398.333333 C134.298667,398.333333 134,398.632 134,399 C134,399.368 134.298667,399.666667 134.666667,399.666667 Z M150,393.666667 C150,393.298667 149.701333,393 149.333333,393 L140.666667,393 L140.666667,394.333333 L149.333333,394.333333 C149.701333,394.333333 150,394.034667 150,393.666667 Z M134,404.333333 C134,404.701333 134.298667,405 134.666667,405 L138,405 L138,403.666667 L134.666667,403.666667 C134.298667,403.666667 134,403.964667 134,404.333333 Z M149.333333,398.333333 L147.333333,398.333333 L147.333333,397.666667 C147.333333,396.933333 146.733333,396.333333 146,396.333333 C145.266667,396.333333 144.666667,396.933333 144.666667,397.666667 L144.666667,400.333333 C144.666667,401.066667 145.266667,401.666667 146,401.666667 C146.733333,401.666667 147.333333,401.066667 147.333333,400.333333 L147.333333,399.666667 L149.333333,399.666667 C149.701333,399.666667 150,399.368 150,399 C150,398.632 149.701333,398.333333 149.333333,398.333333 Z M149.333333,403.666667 L142,403.666667 L142,403 C142,402.266667 141.4,401.666667 140.666667,401.666667 C139.933333,401.666667 139.333333,402.266667 139.333333,403 L139.333333,405.666667 C139.333333,406.4 139.933333,407 140.666667,407 C141.4,407 142,406.4 142,405.666667 L142,405 L149.333333,405 C149.701333,405 150,404.701333 150,404.333333 C150,403.965333 149.701333,403.666667 149.333333,403.666667 Z" id="Settings_Selected"></path>
        </g>
    </g>
</svg>