<?xml version="1.0" encoding="UTF-8"?>
<svg width="18px" height="16px" viewBox="0 0 18 16" version="1.1" xmlns="http://www.w3.org/2000/svg" xmlns:xlink="http://www.w3.org/1999/xlink">
    <title>Settings</title>
    <g id="Chrome-rebrand---light" stroke="none" stroke-width="1" fill="none" fill-rule="evenodd">
        <g id="POC-Icons" transform="translate(-85.000000, -391.000000)" fill="#606060" fill-rule="nonzero">
            <g id="Settings" transform="translate(85.000000, 391.000000)">
                <path d="M0.727272727,2.90909091 L4.49745455,2.90909091 C4.79854545,3.75345455 5.59854545,4.36363636 6.54545455,4.36363636 C7.49236364,4.36363636 8.29236364,3.75345455 8.59345455,2.90909091 L16.7272727,2.90909091 C17.1294545,2.90909091 17.4545455,2.584 17.4545455,2.18181818 C17.4545455,1.77963636 17.1294545,1.45454545 16.7272727,1.45454545 L8.59345455,1.45454545 C8.29236364,0.610181818 7.49236364,0 6.54545455,0 C5.59854545,0 4.79854545,0.610181818 4.49745455,1.45454545 L0.727272727,1.45454545 C0.325090909,1.45454545 2.13162821e-14,1.77963636 2.13162821e-14,2.18181818 C2.13162821e-14,2.584 0.325090909,2.90909091 0.727272727,2.90909091 Z M6.54545455,1.45454545 C6.94690909,1.45454545 7.27272727,1.78036364 7.27272727,2.18181818 C7.27272727,2.58327273 6.94690909,2.90909091 6.54545455,2.90909091 C6.144,2.90909091 5.81818182,2.58327273 5.81818182,2.18181818 C5.81818182,1.78036364 6.144,1.45454545 6.54545455,1.45454545 Z M16.7272727,7.27272727 L13.6843636,7.27272727 C13.3832727,6.42836364 12.5832727,5.81818182 11.6363636,5.81818182 C10.6894545,5.81818182 9.88945455,6.42836364 9.58836364,7.27272727 L0.727272727,7.27272727 C0.325090909,7.27272727 2.30926389e-14,7.59781818 2.30926389e-14,8 C2.30926389e-14,8.40218182 0.325090909,8.72727273 0.727272727,8.72727273 L9.58836364,8.72727273 C9.88945455,9.57163636 10.6894545,10.1818182 11.6363636,10.1818182 C12.5832727,10.1818182 13.3832727,9.57163636 13.6843636,8.72727273 L16.7272727,8.72727273 C17.1294545,8.72727273 17.4545455,8.40218182 17.4545455,8 C17.4545455,7.59781818 17.1294545,7.27272727 16.7272727,7.27272727 Z M11.6363636,8.72727273 C11.2349091,8.72727273 10.9090909,8.40145455 10.9090909,8 C10.9090909,7.59854545 11.2349091,7.27272727 11.6363636,7.27272727 C12.0378182,7.27272727 12.3636364,7.59854545 12.3636364,8 C12.3636364,8.40145455 12.0378182,8.72727273 11.6363636,8.72727273 Z M16.7272727,13.0909091 L8.59345455,13.0909091 C8.29236364,12.2465455 7.49236364,11.6363636 6.54545455,11.6363636 C5.59854545,11.6363636 4.79854545,12.2465455 4.49745455,13.0909091 L0.727272727,13.0909091 C0.325090909,13.0909091 2.13162821e-14,13.416 2.13162821e-14,13.8181818 C2.13162821e-14,14.2203636 0.325090909,14.5454545 0.727272727,14.5454545 L4.49745455,14.5454545 C4.79854545,15.3898182 5.59854545,16 6.54545455,16 C7.49236364,16 8.29236364,15.3898182 8.59345455,14.5454545 L16.7272727,14.5454545 C17.1294545,14.5454545 17.4545455,14.2203636 17.4545455,13.8181818 C17.4545455,13.416 17.1294545,13.0909091 16.7272727,13.0909091 Z M6.54545455,14.5454545 C6.144,14.5454545 5.81818182,14.2196364 5.81818182,13.8181818 C5.81818182,13.4167273 6.144,13.0909091 6.54545455,13.0909091 C6.94690909,13.0909091 7.27272727,13.4167273 7.27272727,13.8181818 C7.27272727,14.2196364 6.94690909,14.5454545 6.54545455,14.5454545 Z" id="Shape"></path>
            </g>
        </g>
    </g>
</svg>