<?xml version="1.0" encoding="UTF-8"?>
<svg width="16px" height="16px" viewBox="0 0 16 16" version="1.1" xmlns="http://www.w3.org/2000/svg" xmlns:xlink="http://www.w3.org/1999/xlink">
    <!-- Generator: sketchtool 63.1 (101010) - https://sketch.com -->
    <title>D3C36C1A-5612-4705-B978-4FBAC91EFC74</title>
    <desc>Created with sketchtool.</desc>
    <g id="Delivered" stroke="none" stroke-width="1" fill="none" fill-rule="evenodd">
        <g id="Report-Loading-1:-Initial-State" transform="translate(-608.000000, -92.000000)" fill="#4D5D71">
            <g id="Group-2" transform="translate(608.000000, 92.000000)">
                <path d="M8.25,13.5 C8.94035594,13.5 9.5,14.0596441 9.5,14.75 C9.5,15.4403559 8.94035594,16 8.25,16 C7.55964406,16 7,15.4403559 7,14.75 C7,14.0596441 7.55964406,13.5 8.25,13.5 Z M3.25,12 C3.94035594,12 4.5,12.5596441 4.5,13.25 C4.5,13.9403559 3.94035594,14.5 3.25,14.5 C2.55964406,14.5 2,13.9403559 2,13.25 C2,12.5596441 2.55964406,12 3.25,12 Z M12.75,11.5 C13.4403559,11.5 14,12.0596441 14,12.75 C14,13.4403559 13.4403559,14 12.75,14 C12.0596441,14 11.5,13.4403559 11.5,12.75 C11.5,12.0596441 12.0596441,11.5 12.75,11.5 Z M1.25,7 C1.94035594,7 2.5,7.55964406 2.5,8.25 C2.5,8.94035594 1.94035594,9.5 1.25,9.5 C0.559644063,9.5 0,8.94035594 0,8.25 C0,7.55964406 0.559644063,7 1.25,7 Z M14.75,7 C15.4403559,7 16,7.55964406 16,8.25 C16,8.94035594 15.4403559,9.5 14.75,9.5 C14.0596441,9.5 13.5,8.94035594 13.5,8.25 C13.5,7.55964406 14.0596441,7 14.75,7 Z M12.5,1.5 C13.6045695,1.5 14.5,2.3954305 14.5,3.5 C14.5,4.6045695 13.6045695,5.5 12.5,5.5 C11.3954305,5.5 10.5,4.6045695 10.5,3.5 C10.5,2.3954305 11.3954305,1.5 12.5,1.5 Z M3,2 C3.82842712,2 4.5,2.67157288 4.5,3.5 C4.5,4.32842712 3.82842712,5 3,5 C2.17157288,5 1.5,4.32842712 1.5,3.5 C1.5,2.67157288 2.17157288,2 3,2 Z M7.75,0 C8.71649831,0 9.5,0.783501688 9.5,1.75 C9.5,2.71649831 8.71649831,3.5 7.75,3.5 C6.78350169,3.5 6,2.71649831 6,1.75 C6,0.783501688 6.78350169,0 7.75,0 Z" id="Combined-Shape"></path>
            </g>
        </g>
    </g>
</svg>