<?xml version="1.0" encoding="UTF-8"?>
<svg width="977px" height="354px" viewBox="0 0 977 354" version="1.1" xmlns="http://www.w3.org/2000/svg" xmlns:xlink="http://www.w3.org/1999/xlink">
    <!-- Generator: Sketch 64 (93537) - https://sketch.com -->
    <title>AO_Logo_Color</title>
    <desc>Created with Sketch.</desc>
    <g id="Old-Chrome" stroke="none" stroke-width="1" fill="none" fill-rule="evenodd">
        <g id="Logos" transform="translate(-314.000000, -703.000000)" fill-rule="nonzero">
            <g id="AO_Logo_Color" transform="translate(314.000000, 703.000000)">
                <path d="M463.93,227.69 C463.85,240.803333 465.726667,250.47 469.56,256.69 C464.22306,258.671056 458.591549,259.742598 452.9,259.86 C446.77,259.97 442.73,258.71 439.56,256.51 C436.39,254.31 434.29,250.85 433.32,246.13 C428.934261,250.757705 423.512144,254.277625 417.5,256.4 C411.18,258.72 404.73,259.73 396.42,259.81 C383.71,259.93 375.73,256.44 368.62,249.93 C361.51,243.42 358.06,234.28 358.079914,222.52 C358.079914,195.86 378.82,182.06 420.08,180.52 C424.79,180.32 426.55,180.31 431.42,180.34 L431.42,175.8 C431.46,169.593333 429.793333,165.086667 426.42,162.28 C423.046667,159.473333 417.453333,158.046667 409.64,158 C404.348003,157.987792 399.081422,158.731983 394,160.21 C388.78,161.69 382.036667,164.756667 373.77,169.41 C365.9,160.24 368.43,144.95 379.65,140.07 C383.683269,138.411987 387.860998,137.129879 392.13,136.24 C399.676349,134.650281 407.368027,133.852626 415.08,133.86 C431.2,133.76 445.14,137.66 452.83,144.93 C460.52,152.2 464.32,163.99 464.22,180.29 L463.93,227.69 Z M431.84,198.249882 L428.31,198.249882 C427.129476,198.246438 425.950081,198.323282 424.78,198.48 C412.673333,199.246667 403.92,201.42 398.52,205 C393.293645,208.262756 390.188209,214.051197 390.36,220.21 C390.36,225.59 391.846667,229.756667 394.82,232.71 C397.82,235.71 402.19,237.17 407.91,237.21 C413.629266,237.283069 419.259411,235.789075 424.19,232.89 C429.17,229.976667 431.666667,227.01 431.68,223.99 L431.84,198.249882 Z M598.08,239.59 C596.266667,234.043333 595.386667,226.81 595.44,217.89 L596.15,100.89 L599.93,100.41 C602.93,100.1 606,99.95 607.75,99.9595313 C623.2,100.07 630.4,106.82 630.32,120.26 L630.21,137.91 L665.5,138.12 L665.35,163.84 L630.05,163.63 L629.73,217.63 C629.656667,229.39 634.41,235.3 643.99,235.36 C647.583969,235.326077 651.12443,234.485388 654.35,232.9 C657.724651,231.358109 660.806844,229.243542 663.46,226.65 C670.73,239.22 664.31,255.65 652.29,259.49 C646.87,261.23 642.52,261.78 634.51,261.78 C615.52,261.54 603.37,254.25 598.08,239.59 L598.08,239.59 Z M717.4,192.68 C717.4,192.68 707.94,183.37 704.4,179.78 C699.230452,174.470396 691.371284,172.798112 684.487875,175.543072 C677.604467,178.288032 673.052692,184.909543 672.955419,192.319446 C672.858146,199.729348 677.234536,206.468063 684.043516,209.392768 C690.852497,212.317474 698.752855,210.852072 704.06,205.68 C707.74,202.13 717.4,192.68 717.4,192.68 Z M850.84,199.85 C850.76,213.13 848.296667,224.626667 843.45,234.34 C839.032942,243.60523 831.849166,251.271185 822.89,256.28 C814.04,261.18 803.39,263.68 790.96,263.53 C770.33,263.28 757.76,258.25 747.32,246.37 C737.23,234.89 731.97,219.55 732.09,199.89 C732.17,187.11 734.803333,175.906667 739.99,166.28 C744.789217,157.035959 752.199667,149.40643 761.3,144.34 C770.3,139.34 780.48,136.83 792.73,136.97 C811.55,137.2 825.97,142.68 835.99,153.74 C846.01,164.8 851,180.18 850.84,199.85 L850.84,199.85 Z M816.3,199.85 C816.453333,175.483333 808.376667,163.25 792.07,163.149352 C783.83,163.096667 777.496667,166.336667 773.07,172.87 C768.643333,179.403333 766.403333,188.38 766.35,199.8 C766.276667,211.9 768.363333,221.233333 772.61,227.8 C776.856667,234.366667 783.013333,237.68 791.08,237.74 C807.74,237.913333 816.146667,225.296667 816.3,199.89 L816.3,199.85 Z M900.9,260.37 L866.36,260.16 L867.08,141 C868.063293,140.748962 869.067468,140.588295 870.08,140.52 C872.836861,140.147476 875.618875,139.993663 878.4,140.06 C890.88,140.23 897.95,144.55 899.75,153.3 C907.543333,142.926667 919.926667,137.79 936.9,137.89 C947.66,137.95 956.136667,140.103333 962.33,144.35 C968.523333,148.596667 972.523333,155.09 974.33,163.83 C975.663333,169.716667 976.283333,178.383333 976.19,189.83 L975.76,260.93 L941.48,260.72 L941.9,191.14 C941.94,183.24 941.426667,177.69 940.36,174.49 C939.489551,171.536105 937.51681,169.029902 934.85,167.49 C932.25,166.05 928.683333,165.316667 924.15,165.29 C917.763333,165.25 912.376667,166.516667 907.99,169.09 C903.603333,171.663333 901.4,174.886667 901.38,178.76 L900.9,260.37 Z M573.68,222.8 C570.038394,226.731916 565.640566,229.888284 560.75,232.08 C555.674569,234.498371 550.131907,235.778234 544.51,235.83 C534.43,235.89 526.763333,232.87 521.51,226.77 C516.26,220.66 513.61,209.98 513.51,198.05 L513.51,198.05 L513.51,198.05 L513.51,198.05 C513.59,186.11 516.24,175.32 521.51,169.22 C526.78,163.12 534.43,160.09 544.51,160.15 C550.132617,160.205213 555.675247,161.488482 560.75,163.91 C565.642637,166.098114 570.041143,169.25497 573.68,173.19 C575.787638,170.929431 577.453041,168.293958 578.59,165.42 C583.36,153.69 574.11,142.7 568.41,139.96 C565.226454,138.422352 561.891926,137.219241 558.46,136.37 C552.291251,134.881026 545.96587,134.139036 539.62,134.16 C528.847582,133.98957 518.199538,136.479838 508.62,141.41 C499.365416,146.129609 491.727091,153.499862 486.68,162.58 C481.53,171.73 478.91,184.74 478.8,198.07 L478.8,198.07 C478.91,211.39 481.53,224.3 486.68,233.45 C491.727091,242.530138 499.365416,249.900391 508.62,254.62 C518.199538,259.550162 528.847582,262.04043 539.62,261.87 C545.987655,261.874287 552.332885,261.115545 558.52,259.61 C561.928949,258.77098 565.242931,257.584782 568.41,256.07 C574.11,253.33 583.41,242.34 578.59,230.61 C577.457475,227.721848 575.791857,225.072464 573.68,222.8 L573.68,222.8 Z" id="Shape" fill="#3F3C45"></path>
                <path d="M232.8,0.86 L232.8,0.86 C182.977807,1.86022854 143.206961,42.7100186 143.54039,92.5411356 C143.87382,142.372253 184.187747,182.68618 234.018864,183.01961 C283.849981,183.353039 324.699771,143.582193 325.7,93.76 L325.7,93.76 L325.7,0.86 L232.8,0.86 Z" id="Path" fill="#E2E41A"></path>
                <path d="M232.8,0.86 L232.8,0.86 C196.301235,1.59432353 163.766388,24.0484915 150.132891,57.913323 C136.499394,91.7781546 144.401033,130.511474 170.21,156.33 C222.21,50.12 276.72,97.05 325.72,0.84 L232.8,0.86 Z" id="Path" fill="#E8E947"></path>
                <path d="M294,275.79 L294,275.79 C293.165473,234.14531 259.022161,200.900752 217.370028,201.177157 C175.717894,201.453561 142.018793,235.148323 141.737025,276.80042 C141.455257,318.452518 174.695418,352.60011 216.34,353.44 L216.34,353.44 L294,353.44 L294,275.79 Z" id="Path" fill="#E34E64"></path>
                <path d="M294,275.79 L294,275.79 C293.404965,245.260818 274.628877,218.040129 246.301967,206.639638 C217.975058,195.239146 185.577306,201.864333 164,223.47 C252.78,266.97 213.55,312.47 294,353.47 L294,275.79 Z" id="Path" fill="#E55F74"></path>
                <path d="M0.21,263.49 L0.21,263.49 C0.9062963,229.177682 29.0428192,201.792236 63.3614164,202.024349 C97.6800136,202.256462 125.443538,230.019986 125.675651,264.338584 C125.907764,298.657181 98.522318,326.793704 64.21,327.49 L0.21,327.49 L0.21,263.49 Z" id="Path" fill="#00BABE"></path>
                <path d="M0.21,263.49 L0.21,263.49 C0.713107523,238.347705 16.1800052,215.93498 39.5080748,206.544065 C62.8361445,197.15315 89.5176238,202.598684 107.3,220.38 C34.15,256.22 66.47,293.74 0.21,327.48 L0.21,263.49 Z" id="Path" fill="#19C1C4"></path>
                <path d="M75,81.16 L75,81.16 C102.345995,81.7126147 124.172876,104.135592 123.98866,131.48655 C123.804444,158.837507 101.677507,180.964444 74.3265496,181.14866 C46.9755917,181.332876 24.5526147,159.505995 24,132.16 L24,132.16 L24,81.16 L75,81.16 Z" id="Path" fill="#193661"></path>
                <path d="M75,81.16 L75,81.16 C95.0612692,81.5339826 112.955886,93.8641657 120.449821,112.476939 C127.943757,131.089712 123.585319,152.379492 109.38,166.55 C80.8,108.22 50.88,133.99 23.96,81.15 L75,81.16 Z" id="Path" fill="#304A71"></path>
            </g>
        </g>
    </g>
</svg>